<svg xmlns="http://www.w3.org/2000/svg" width="256" height="256" viewBox="0 0 100 100"><rect width="100" height="100" rx="50" fill="#2563eb"></rect><path fill="#fff" d="M78.98 30.16L78.98 31.32Q77.99 40.95 66.92 45.72L66.92 45.72Q64.31 46.80 61.61 47.34L61.61 47.34Q75.65 49.95 75.65 60.66L75.65 60.66Q75.65 69.75 65.97 75.97Q56.30 82.17 41.99 82.17L41.99 82.17Q34.97 82.17 30.29 79.97Q25.61 77.77 25.61 72.63L25.61 72.63Q25.61 66.33 32.27 50.67Q38.93 35.02 44.60 23.95L44.60 23.95Q45.50 22.14 45.95 21.42L45.95 21.42L42.71 21.88Q35.69 22.86 29.79 25.20Q23.90 27.54 21.83 31.05L21.83 31.05Q21.74 31.32 21.38 31.32Q21.02 31.32 21.02 30.83Q21.02 30.34 21.11 30.16L21.11 30.16Q24.53 20.80 33.62 18.73L33.62 18.73Q37.76 17.82 44.69 17.82L44.69 17.82L62.42 17.82Q70.61 17.82 74.79 21.34Q78.98 24.84 78.98 30.16L78.98 30.16ZM69.62 30.16L69.62 28.98Q68.81 21.06 57.11 20.52L57.11 20.52Q52.88 26.02 45.95 41.13Q39.02 56.25 37.13 62.96Q35.24 69.66 35.24 73.13Q35.24 76.59 37.22 77.63Q39.20 78.66 43.79 78.66L43.79 78.66Q52.34 78.66 58.73 74.03Q65.12 69.39 65.12 60.21L65.12 60.21Q65.12 55.71 62.91 52.47Q60.71 49.23 56.48 48.69L56.48 48.69Q50.90 50.22 45.68 50.22L45.68 50.22Q44.15 50.22 44.15 49.59L44.15 49.59Q44.15 47.52 46.94 46.76Q49.73 45.99 52.25 45.99Q54.77 45.99 57.20 46.35L57.20 46.35Q63.05 44.55 66.33 39.88Q69.62 35.20 69.62 30.16L69.62 30.16Z"></path></svg>